# AST/ASF file generated using VICON BodyLanguage
# -----------------------------------------------
:version 1.10
:name VICON
:units
  mass 1.0
  length 0.45
  angle deg
:documentation
   .ast/.asf automatically generated from VICON data using
   VICON BodyBuilder and BodyLanguage model FoxedUp or BRILLIANT.MOD
:root
   order TX TY TZ RX RY RZ
   axis XYZ
   position 0 0 0  
   orientation 0 0 0 
:bonedata
  begin
     id 1 
     name lhipjoint
     direction 0.528046 -0.759594 0.379717 
     length 2.39752 
     axis 0 0 0  XYZ
  end
  begin
     id 2 
     name lfemur
     direction 0.34202 -0.939693 0  
     length 7.31175  
     axis 0 0 20  XYZ
    dof rx ry rz
    limits (-160.0 20.0)
           (-70.0 70.0)
           (-60.0 70.0)
  end
  begin
     id 3 
     name ltibia
     direction 0.34202 -0.939693 0   
     length 7.52482   
     axis 0 0 20   XYZ
    dof rx
    limits (-10.0 170.0)
  end
  begin
     id 4 
     name lfoot
     direction 0.0675379 -0.185559 0.980309   
     length 2.00961   
     axis -90 7.62852e-016 20   XYZ
    dof rx rz
    limits (-45.0 90.0)
           (-70.0 20.0)
  end
  begin
     id 5 
     name ltoes
     direction 1.5352e-011 -4.22286e-011 1   
     length 1.01383   
     axis -90 7.62852e-016 20   XYZ
    dof rx
    limits (-90.0 20.0)
  end
  begin
     id 6 
     name rhipjoint
     direction -0.510274 -0.769251 0.384544   
     length 2.36742  
     axis 0 0 0  XYZ 
  end
  begin
     id 7 
     name rfemur
     direction -0.34202 -0.939693 0   
     length 7.45325   
     axis 0 0 -20   XYZ
    dof rx ry rz
    limits (-160.0 20.0)
           (-70.0 70.0)
           (-70.0 60.0)
  end
  begin
     id 8 
     name rtibia
     direction -0.34202 -0.939693 0   
     length 7.49587   
     axis 0 0 -20   XYZ
    dof rx
    limits (-10.0 170.0)
 end
 begin
     id 9 
     name rfoot
     direction -0.106475 -0.292536 0.950308   
     length 2.20898  
     axis -90 -7.62852e-016 -20   XYZ
    dof rx rz
    limits (-45.0 90.0)
           (-20.0 70.0)
  end
  begin
     id 10 
     name rtoes
     direction -1.53597e-011 -4.22023e-011 1   
     length 1.10065   
     axis -90 -7.62852e-016 -20   XYZ
    dof rx
    limits (-90.0 20.0)
  end
  begin
     id 11 
     name lowerback
     direction 0.0260024 0.998026 -0.0571652   
     length 2.11214   
     axis 0 0 0   XYZ
    dof rx ry rz
    limits (-20.0 45.0)
           (-30.0 30.0)
           (-30.0 30.0)
  end
  begin
     id 12 
     name upperback
     direction 0.0216202 0.999542 -0.0211766   
     length 2.11689   
     axis 0 0 0   XYZ
    dof rx ry rz
    limits (-20.0 45.0)
           (-30.0 30.0)
           (-30.0 30.0)
  end
  begin
     id 13 
     name thorax
     direction 0.00883312 0.999944 0.00589057   
     length 2.11821   
     axis 0 0 0   XYZ
    dof rx ry rz
    limits (-20.0 45.0)
           (-30.0 30.0)
           (-30.0 30.0)
  end
  begin
     id 14 
     name lowerneck
     direction -0.059386 0.994433 0.0870401   
     length 1.81176   
     axis 0 0 0   XYZ
    dof rx ry rz
    limits (-20.0 45.0)
           (-30.0 30.0)
           (-30.0 30.0)
  end
  begin
     id 15 
     name upperneck
     direction 0.0506457 0.97328 -0.223967   
     length 1.82382   
     axis 0 0 0   XYZ
    dof rx ry rz
    limits (-20.0 45.0)
           (-30.0 30.0)
           (-30.0 30.0)
  end
  begin
     id 16
     name head
     direction 0.0205902 0.996147 -0.0852487  
     length 1.84805  
     axis 0 0 0   XYZ
    dof rx ry rz
    limits (-20.0 45.0)
           (-30.0 30.0)
           (-30.0 30.0)
  end
  begin
     id 17 
     name lclavicle
     direction 0.949493 0.303881 -0.0782325  
     length 3.60584  
     axis 0 0 0   XYZ
    dof ry rz
    limits (-20.0 10.0)
           (0.0 20.0)
  end
  begin
     id 18 
     name lhumerus
     direction 1 -4.48965e-011 1.48782e-027   
     length 4.95681   
     axis 180 -30 -90   XYZ
    dof rx ry rz
    limits (-60.0 90.0)
           (-90.0 90.0)
           (-90.0 90.0)
  end
  begin
     id 19
     name lradius
     direction 1 -4.48952e-011 2.06528e-027   
     length 3.40915   
     axis 180 -30 -90   XYZ
    dof rx
    limits (-10.0 170.0)
  end
  begin
     id 20
     name lwrist
     direction 1 -4.48964e-011 1.28021e-027   
     length 1.70457   
     axis -1.61767e-015 90 90   XYZ
    dof ry
    limits (-180.0 0.0)
 end
  begin
     id 21 
     name lhand
     direction 1 -4.49094e-011 2.54887e-027   
     length 0.616403   
     axis -1.63363e-015 90 90   XYZ
    dof rx rz
    limits (-90.0 90.0)
           (-45.0 45.0)
  end
  begin
     id 22 
     name lfingers
     direction 1 -4.49002e-011 5.11407e-027   
     length 0.49696   
     axis -3.26723e-015 90 90   XYZ
    dof rx
    limits (0.0 90.0)
  end
  begin
     id 23
     name lthumb
     direction 0.707107 -6.34998e-011 0.707107   
     length 0.713539   
     axis -90 45 -2.25915e-014   XYZ
    dof rx rz
    limits (-45.0 45.0)
           (-45.0 45.0)
  end
  begin
     id 24 
     name rclavicle
     direction -0.937751 0.334612 -0.0930482   
     length 3.46287  
     axis 0 0 0   XYZ 
    dof ry rz
    limits (-10.0 20.0)
           (-20.0 0.0)
  end
  begin
     id 25 
     name rhumerus
     direction -1 -4.48962e-011 3.59972e-027  
     length 5.352   
     axis 180 30 90   XYZ
    dof rx ry rz
    limits (-90.0 60.0)
           (-90.0 90.0)
           (-90.0 90.0)
  end
  begin
     id 26 
     name rradius
     direction -1 -4.48987e-011 -3.76925e-027   
     length 3.43721   
     axis 180 30 90   XYZ
    dof rx
    limits (-10.0 170.0)
  end
  begin
     id 27 
     name rwrist
     direction -1 -4.48943e-011 1.28112e-027   
     length 1.7186   
     axis -1.61767e-015 -90 -90   XYZ
    dof ry
    limits (-180.0 0.0)
  end
  begin
     id 28
     name rhand
     direction -1 -4.49027e-011 2.55483e-027   
     length 0.72009   
     axis -1.63363e-015 -90 -90   XYZ
    dof rx rz
    limits (-90.0 90.0)
           (-45.0 45.0)
  end
  begin
     id 29
     name rfingers
     direction -1 -4.48827e-011 5.14506e-027   
     length 0.580555   
     axis -3.26723e-015 -90 -90   XYZ
    dof rx
    limits (0.0 90.0)
  end
  begin
     id 30
     name rthumb
     direction -0.707107 -6.34936e-011 0.707107   
     length 0.833564   
     axis -90 -45 2.25915e-014   XYZ
    dof rx rz
    limits (-45.0 45.0)
           (-45.0 45.0)
  end
:hierarchy
  begin
    root lhipjoint rhipjoint lowerback
    lhipjoint lfemur
    lfemur ltibia
    ltibia lfoot
    lfoot ltoes
    rhipjoint rfemur
    rfemur rtibia
    rtibia rfoot
    rfoot rtoes
    lowerback upperback
    upperback thorax
    thorax lowerneck lclavicle rclavicle
    lowerneck upperneck
    upperneck head
    lclavicle lhumerus
    lhumerus lradius
    lradius lwrist
    lwrist lhand lthumb
    lhand lfingers
    rclavicle rhumerus
    rhumerus rradius
    rradius rwrist
    rwrist rhand rthumb
    rhand rfingers
  end

#!OML:ASF H:\Terrain\Patient Classification 1\Terrain2\Thursday\justin.ASF
:FULLY-SPECIFIED
:DEGREES
779
root -2.11504 20.1963 -12.0373 200.914 75.1964 -160.171
lowerback 5.70871 -1.28988 -0.724667
upperback 3.22689 -1.59885 3.76756
thorax 0.255406 -0.78558 4.3816
lowerneck -9.09986 -5.22309 -10.8171
upperneck 40.9483 -5.01446 6.30197
head 16.9178 -2.15029 4.2063
rclavicle -2.48978e-014 -1.78906e-014
rhumerus -32.3688 -9.94679 -77.0047
rradius 37.8685
rwrist -14.3915
rhand -21.264 13.546
rfingers 7.12502
rthumb 5.11945 -16.3722
lclavicle -2.48978e-014 -1.78906e-014
lhumerus -36.253 11.6371 73.4123
lradius 36.0649
lwrist 5.80778
lhand -20.1124 22.4498
lfingers 7.12502
lthumb 6.23128 52.3381
rfemur -21.8779 5.09051 19.8397
rtibia 44.3563
rfoot -25.2814 17.5928
rtoes -9.4063
lfemur -11.7519 -3.49719 -14.8735
ltibia 34.826
lfoot -18.2652 -15.957
ltoes 25.1648
780
root -2.12616 20.1948 -12.0588 201.262 75.5446 -159.786
lowerback 5.77839 -1.28001 -0.831488
upperback 3.25621 -1.58842 3.82542
thorax 0.251285 -0.78183 4.50366
lowerneck -9.16036 -5.15407 -10.8882
upperneck 40.9602 -4.87549 6.25897
head 16.9233 -2.112 4.22215
rclavicle -4.32357e-014 6.36111e-015
rhumerus -32.3432 -9.88402 -77.0216
rradius 37.1955
rwrist -14.2086
rhand -21.4112 13.6942
rfingers 7.12502
rthumb 4.97731 -16.2273
lclavicle -4.32357e-014 6.36111e-015
lhumerus -36.1712 11.7893 73.0454
lradius 36.8586
lwrist 6.54195
lhand -20.8283 22.2232
lfingers 7.12502
lthumb 5.54011 52.1307
rfemur -21.9967 4.43729 20.0172
rtibia 44.7744
rfoot -25.4202 16.0918
rtoes -8.30474
lfemur -11.6301 -3.16721 -14.9951
ltibia 34.7374
lfoot -18.7392 -15.7268
ltoes 22.4585
781
root -2.13602 20.1957 -12.0774 202.471 75.8934 -158.59
lowerback 5.79286 -1.25235 -0.732284
upperback 3.24404 -1.54288 3.93187
thorax 0.227248 -0.756976 4.5568
lowerneck -9.1201 -5.09869 -10.9746
upperneck 40.9488 -4.72966 6.13673
head 16.888 -2.08312 4.2039
rclavicle -1.72943e-014 -2.94201e-014
rhumerus -32.4165 -10.2138 -76.9189
rradius 36.5691
rwrist -13.7246
rhand -21.2933 14.0562
rfingers 7.12502
rthumb 5.09116 -15.8627
lclavicle -1.72943e-014 -2.94201e-014
lhumerus -36.1554 11.9807 72.721
lradius 37.8286
lwrist 7.40954
lhand -21.2258 22.4231
lfingers 7.12502
lthumb 5.15633 52.3404
rfemur -22.1508 3.66427 20.4552
rtibia 45.1462
rfoot -26.1346 13.9257
rtoes -10.4979
lfemur -11.5783 -2.66195 -14.8837
ltibia 34.638
lfoot -18.9417 -15.7539
ltoes 22.7996
782
root -2.14428 20.2049 -12.0961 203.622 76.23 -157.65
lowerback 5.63583 -1.30453 -0.708515
upperback 3.16854 -1.61412 3.9902
thorax 0.243803 -0.793445 4.60468
lowerneck -9.13876 -4.98705 -11.1271
upperneck 40.9909 -4.50517 6.09247
head 16.8929 -2.02334 4.24986
rclavicle -3.12092e-014 -5.56597e-015
rhumerus -32.5461 -10.5847 -76.8521
rradius 36.1328
rwrist -13.117
rhand -20.3067 13.6538
rfingers 7.12502
rthumb 6.04376 -16.24
lclavicle -3.12092e-014 -5.56597e-015
lhumerus -36.1357 12.2525 72.2635
lradius 38.7222
lwrist 8.73011
lhand -21.5084 22.9137
lfingers 7.12502
lthumb 4.88344 52.8374
rfemur -22.5061 2.7487 20.8292
rtibia 45.4249
rfoot -26.3442 12.067
rtoes -11.1349
lfemur -11.7198 -2.28941 -14.8513
ltibia 34.5356
lfoot -18.8418 -15.7305
ltoes 24.87
783
root -2.15069 20.2171 -12.1109 204.678 76.5123 -156.768
lowerback 5.52603 -1.38488 -0.747089
upperback 3.11709 -1.72626 4.01052
thorax 0.263331 -0.851369 4.65099
lowerneck -9.22543 -4.84659 -11.0828
upperneck 41.0361 -4.28415 6.04164
head 16.9056 -1.93599 4.2563
rclavicle -1.46604e-014 7.15625e-015
rhumerus -32.5757 -10.5692 -77.034
rradius 35.5722
rwrist -12.6974
rhand -19.3741 13.418
rfingers 7.12502
rthumb 6.94401 -16.4481
lclavicle -1.46604e-014 7.15625e-015
lhumerus -36.123 12.5078 71.669
lradius 39.5279
lwrist 9.65165
lhand -21.5394 22.982
lfingers 7.12502
lthumb 4.85355 52.9065
rfemur -22.8347 1.83774 21.2744
rtibia 45.608
rfoot -26.2353 9.84921
rtoes -11.8753
lfemur -11.8227 -2.15066 -14.8227
ltibia 34.4359
lfoot -18.7589 -15.6045
ltoes 25.9313
784
root -2.14857 20.2273 -12.1213 206.199 76.7334 -155.056
lowerback 5.64364 -1.30458 -0.564158
upperback 3.20923 -1.60405 4.08161
thorax 0.279218 -0.786554 4.61752
lowerneck -9.27623 -4.8659 -10.9372
upperneck 41.044 -4.33464 5.99203
head 16.9206 -1.94213 4.19833
rclavicle -1.0635e-014 -6.75868e-015
rhumerus -32.6549 -10.7444 -77.0423
rradius 35.0606
rwrist -12.3293
rhand -19.8151 13.6795
rfingers 7.12502
rthumb 6.51834 -16.2002
lclavicle -1.0635e-014 -6.75868e-015
lhumerus -35.8257 12.3709 71.4016
lradius 40.0949
lwrist 10.3044
lhand -21.913 22.8785
lfingers 7.12502
lthumb 4.49282 52.8108
rfemur -22.7332 0.955315 21.9506
rtibia 45.761
rfoot -25.8952 7.85517
rtoes -10.9116
lfemur -11.5227 -2.03652 -14.5838
ltibia 34.3205
lfoot -18.7716 -15.4837
ltoes 26.6444
785
root -2.14418 20.2279 -12.1328 207.265 76.8968 -153.631
lowerback 5.885 -1.1125 -0.249979
upperback 3.33741 -1.32321 4.08884
thorax 0.245708 -0.638626 4.43668
lowerneck -9.20919 -5.01805 -10.9314
upperneck 41.0257 -4.63418 6.14999
head 16.9381 -2.04305 4.22051
rclavicle -7.90169e-015 -2.46493e-014
rhumerus -32.9288 -11.4838 -76.7941
rradius 34.7365
rwrist -11.9851
rhand -20.8523 13.5894
rfingers 7.12502
rthumb 5.51691 -16.3188
lclavicle -7.90169e-015 -2.46493e-014
lhumerus -35.2813 11.9472 71.3211
lradius 40.4601
lwrist 11.0387
lhand -22.4619 23.1098
lfingers 7.12502
lthumb 3.96274 53.0527
rfemur -22.3415 0.0739507 22.4938
rtibia 45.9306
rfoot -25.3337 6.84093
rtoes -5.3689
lfemur -11.0575 -1.87186 -14.4024
ltibia 34.2403
lfoot -18.8781 -15.3917
ltoes 26.0056
786
root -2.14794 20.2245 -12.1528 207.551 77.1545 -153.288
lowerback 5.96039 -1.01978 -0.164166
upperback 3.33908 -1.19492 4.03134
thorax 0.191862 -0.572317 4.3225
lowerneck -9.12064 -5.05274 -10.9771
upperneck 41.0048 -4.73056 6.27146
head 16.9228 -2.07411 4.26847
rclavicle -2.80783e-014 -1.07344e-014
rhumerus -33.209 -11.6926 -76.5742
rradius 34.3677
rwrist -11.9492
rhand -20.9392 13.5709
rfingers 7.12502
rthumb 5.43302 -16.3394
lclavicle -2.80783e-014 -1.07344e-014
lhumerus -35.1056 11.7772 71.126
lradius 41.1285
lwrist 11.5925
lhand -22.8277 23.0211
lfingers 7.12502
lthumb 3.6095 52.9703
rfemur -22.2753 -0.718032 22.7197
rtibia 46.1393
rfoot -25.2554 5.39235
rtoes -3.17165
lfemur -10.9284 -1.81864 -14.5519
ltibia 34.2253
lfoot -19.1127 -15.1279
ltoes 24.6693
787
root -2.15174 20.2193 -12.1737 207.513 77.5023 -153.416
lowerback 5.89467 -0.99057 -0.2806
upperback 3.32573 -1.16865 3.93308
thorax 0.212767 -0.562208 4.28322
lowerneck -9.05446 -4.99645 -10.8744
upperneck 40.9473 -4.70337 6.31189
head 16.8642 -2.04363 4.26909
rclavicle 3.69739e-014 -1.59028e-015
rhumerus -33.4032 -11.5527 -76.5122
rradius 34.0301
rwrist -12.1057
rhand -20.6349 13.6141
rfingers 7.12502
rthumb 5.72684 -16.2885
lclavicle 3.69739e-014 -1.59028e-015
lhumerus -35.0773 11.5784 70.8263
lradius 41.9177
lwrist 12.0222
lhand -23.0564 22.4791
lfingers 7.12502
lthumb 3.38861 52.4319
rfemur -22.4541 -1.65897 22.8661
rtibia 46.4283
rfoot -25.114 3.5381
rtoes -3.94357
lfemur -10.9013 -1.6732 -14.8404
ltibia 34.1252
lfoot -19.146 -14.8783
ltoes 25.2019
